G:\RME\Thesis\opencap-processing\Data\089bb815-6ab6-4c35-820c-ac6f9c5db3e0\OpenSimData\Dynamics\walking\GRF_resultant_walking_0.mot
version=1
nRows=25
nColumns=19
inDegrees=yes
endheader 
time	ground_force_right_vx	ground_force_right_vy	ground_force_right_vz	ground_force_right_px	ground_force_right_py	ground_force_right_pz	ground_torque_right_x	ground_torque_right_y	ground_torque_right_z	ground_force_left_vx	ground_force_left_vy	ground_force_left_vz	ground_force_left_px	ground_force_left_py	ground_force_left_pz	ground_torque_left_x	ground_torque_left_y	ground_torque_left_z	
          0.00000000	         14.65264933	        383.75129306	         27.04676102	          0.18116280	          0.00000000	         -0.13983966	          0.00000000	         -2.27768797	          0.00000000	        -40.29319017	        487.57536980	        -12.22200416	          0.17976603	          0.00000000	         -0.38701078	          0.00000000	         -8.64769827	          0.00000000	
          0.01000000	          6.62335097	        375.30926199	         22.03355437	          0.17804121	          0.00000000	         -0.14011156	          0.00000000	         -2.09039100	          0.00000000	        -32.11986955	        399.33249692	        -12.11252702	          0.17880141	          0.00000000	         -0.38730953	          0.00000000	         -6.83812969	          0.00000000	
          0.02000000	          2.64828825	        365.53590743	         22.86015932	          0.17563331	          0.00000000	         -0.14026242	          0.00000000	         -1.95748019	          0.00000000	        -29.96972388	        347.88666951	        -12.68966259	          0.17723387	          0.00000000	         -0.38710971	          0.00000000	         -5.61502612	          0.00000000	
          0.03000000	         -0.37029450	        352.71692122	         24.80133761	          0.17384355	          0.00000000	         -0.14035620	          0.00000000	         -1.83986901	          0.00000000	        -31.64634536	        318.10001519	        -10.77226292	          0.17514062	          0.00000000	         -0.38644280	          0.00000000	         -4.71785302	          0.00000000	
          0.04000000	         -0.16636641	        335.43783442	         23.18299751	          0.17273990	          0.00000000	         -0.14046537	          0.00000000	         -1.71197391	          0.00000000	        -31.85369935	        302.08941934	         -6.97959908	          0.17292996	          0.00000000	         -0.38553214	          0.00000000	         -4.00188882	          0.00000000	
          0.05000000	         -0.41461743	        318.17841083	         22.91026818	          0.17207451	          0.00000000	         -0.14051624	          0.00000000	         -1.61233492	          0.00000000	        -30.26891559	        296.19941883	         -4.31220964	          0.17083699	          0.00000000	         -0.38465746	          0.00000000	         -3.43255173	          0.00000000	
          0.06000000	         -0.87620885	        303.22670400	         21.51763038	          0.17180744	          0.00000000	         -0.14058240	          0.00000000	         -1.55692415	          0.00000000	        -24.69027195	        298.76289676	         -3.89919899	          0.16929348	          0.00000000	         -0.38400261	          0.00000000	         -2.98300607	          0.00000000	
          0.07000000	         -3.67067314	        294.02273597	         20.87555574	          0.17182356	          0.00000000	         -0.14063118	          0.00000000	         -1.52683145	          0.00000000	        -16.10010089	        308.25376134	         -3.70296102	          0.16852450	          0.00000000	         -0.38362241	          0.00000000	         -2.67442157	          0.00000000	
          0.08000000	         -6.72809469	        290.56895300	         19.39122409	          0.17225297	          0.00000000	         -0.14067868	          0.00000000	         -1.51846966	          0.00000000	         -5.51955344	        324.92318808	         -4.72417251	          0.16862330	          0.00000000	         -0.38358251	          0.00000000	         -2.48585818	          0.00000000	
          0.09000000	         -9.19256798	        292.91563645	         17.77565871	          0.17313756	          0.00000000	         -0.14068635	          0.00000000	         -1.51898172	          0.00000000	          3.02867999	        348.60525940	         -6.13215212	          0.16946308	          0.00000000	         -0.38384577	          0.00000000	         -2.40765580	          0.00000000	
          0.10000000	        -10.03162771	        299.50081826	         14.71770141	          0.17450903	          0.00000000	         -0.14066152	          0.00000000	         -1.50780259	          0.00000000	          9.54536328	        378.38064815	         -7.38385283	          0.17097520	          0.00000000	         -0.38436058	          0.00000000	         -2.41691392	          0.00000000	
          0.11000000	         -9.13109390	        308.89759484	         10.78761413	          0.17627417	          0.00000000	         -0.14058781	          0.00000000	         -1.46353909	          0.00000000	         10.83293348	        412.44334908	         -7.30324012	          0.17293694	          0.00000000	         -0.38502885	          0.00000000	         -2.48864203	          0.00000000	
          0.12000000	         -7.30605723	        318.01255908	          6.43055292	          0.17832266	          0.00000000	         -0.14046004	          0.00000000	         -1.35513324	          0.00000000	         10.12840654	        447.12597051	         -7.15562888	          0.17527104	          0.00000000	         -0.38582157	          0.00000000	         -2.58887767	          0.00000000	
          0.13000000	         -4.86373503	        324.84458640	          2.96257364	          0.18048425	          0.00000000	         -0.14028881	          0.00000000	         -1.16939906	          0.00000000	          6.68799158	        478.50796823	         -7.06521850	          0.17775782	          0.00000000	         -0.38667673	          0.00000000	         -2.68712621	          0.00000000	
          0.14000000	         -2.90817013	        327.49397169	          0.27694806	          0.18259430	          0.00000000	         -0.14011746	          0.00000000	         -0.91053701	          0.00000000	          2.60182113	        502.88678721	         -6.50865690	          0.18023498	          0.00000000	         -0.38754267	          0.00000000	         -2.76666578	          0.00000000	
          0.15000000	         -1.12276368	        325.58161754	         -1.49639061	          0.18451730	          0.00000000	         -0.13998453	          0.00000000	         -0.60988398	          0.00000000	         -1.68459157	        518.86477162	         -6.79409394	          0.18250938	          0.00000000	         -0.38837741	          0.00000000	         -2.82680916	          0.00000000	
          0.16000000	         -0.16421329	        319.80372522	         -2.12093907	          0.18610692	          0.00000000	         -0.13991731	          0.00000000	         -0.29742225	          0.00000000	         -4.76171477	        526.55051639	         -6.38570718	          0.18451150	          0.00000000	         -0.38911160	          0.00000000	         -2.88434662	          0.00000000	
          0.17000000	          0.63895523	        311.60076031	         -2.10891358	          0.18731385	          0.00000000	         -0.13994545	          0.00000000	         -0.01899280	          0.00000000	         -7.22763617	        528.67794812	         -6.12314631	          0.18619239	          0.00000000	         -0.38970788	          0.00000000	         -2.94218183	          0.00000000	
          0.18000000	          1.65105155	        302.15863184	         -1.42574053	          0.18814915	          0.00000000	         -0.14006590	          0.00000000	          0.21183963	          0.00000000	         -8.92870880	        527.22151860	         -5.66989409	          0.18756975	          0.00000000	         -0.39016181	          0.00000000	         -3.01082593	          0.00000000	
          0.19000000	          2.94237602	        292.27264433	         -0.15506590	          0.18868363	          0.00000000	         -0.14026688	          0.00000000	          0.38788594	          0.00000000	        -10.18742609	        523.82732309	         -5.04361253	          0.18864157	          0.00000000	         -0.39049042	          0.00000000	         -3.07754892	          0.00000000	
          0.20000000	          4.63756735	        282.14637668	          1.28748925	          0.18902143	          0.00000000	         -0.14053707	          0.00000000	          0.51624036	          0.00000000	        -11.15654259	        519.19427355	         -4.40836189	          0.18943619	          0.00000000	         -0.39072590	          0.00000000	         -3.11809679	          0.00000000	
          0.21000000	          6.25028189	        272.13401115	          2.98755512	          0.18923593	          0.00000000	         -0.14085739	          0.00000000	          0.60125757	          0.00000000	        -11.68774322	        514.14291346	         -3.65382568	          0.18999090	          0.00000000	         -0.39088726	          0.00000000	         -3.12523413	          0.00000000	
          0.22000000	          7.96338977	        262.32604459	          4.66060986	          0.18940682	          0.00000000	         -0.14121805	          0.00000000	          0.65688545	          0.00000000	        -11.66202413	        509.26065153	         -2.96644503	          0.19037256	          0.00000000	         -0.39100467	          0.00000000	         -3.09074714	          0.00000000	
          0.23000000	          9.52312027	        253.07684722	          6.28830229	          0.18958794	          0.00000000	         -0.14160538	          0.00000000	          0.68799788	          0.00000000	        -11.13081320	        505.52846087	         -2.09528080	          0.19063894	          0.00000000	         -0.39109462	          0.00000000	         -3.03079691	          0.00000000	
          0.24000000	         11.25033985	        244.60970532	          7.50593038	          0.18984583	          0.00000000	         -0.14201221	          0.00000000	          0.70304732	          0.00000000	         -9.69070762	        503.83825225	         -1.79288418	          0.19086454	          0.00000000	         -0.39119097	          0.00000000	         -2.96186557	          0.00000000	
